<?xml version="1.0" standalone="no"?>
<!DOCTYPE svg PUBLIC "-//W3C//DTD SVG 20010904//EN"
 "http://www.w3.org/TR/2001/REC-SVG-20010904/DTD/svg10.dtd">
<svg version="1.0" xmlns="http://www.w3.org/2000/svg"
 width="206.000000pt" height="269.000000pt" viewBox="0 0 206.000000 269.000000"
 preserveAspectRatio="xMidYMid meet">

<g transform="translate(0.000000,269.000000) scale(0.100000,-0.100000)"
fill="#000000" stroke="none">
<path d="M746 2449 c-3 -17 -6 -49 -6 -71 0 -33 -3 -39 -16 -34 -9 3 -18 6
-21 6 -4 0 2 9 12 20 27 30 14 33 -39 9 -44 -19 -70 -52 -63 -81 1 -7 -16 -11
-45 -12 -35 -1 -48 -5 -50 -16 0 -8 -2 -19 -3 -25 -2 -5 -3 -14 -4 -20 -1 -5
-5 -4 -10 4 -7 10 -16 0 -34 -39 -25 -53 -25 -78 3 -95 6 -3 10 -20 10 -37 0
-26 -2 -29 -15 -18 -17 14 -17 14 -20 -18 -1 -14 5 -27 16 -33 11 -5 19 -19
19 -30 0 -26 20 -33 62 -21 35 9 149 -2 180 -19 39 -20 108 -3 108 26 0 8 17
23 38 34 55 28 74 54 80 111 4 45 1 54 -33 99 -21 28 -51 55 -67 62 -23 9 -28
18 -28 45 0 32 1 32 31 24 52 -15 91 19 55 49 -10 9 -17 7 -27 -5 -9 -12 -24
-15 -51 -11 -32 4 -38 2 -38 -13 0 -28 -20 -35 -21 -8 -2 56 -10 142 -13 145
-2 2 -6 -11 -10 -28z m119 -269 c10 -11 16 -20 13 -20 -3 0 -13 9 -23 20 -10
11 -16 20 -13 20 3 0 13 -9 23 -20z m25 -130 c-6 -11 -13 -20 -16 -20 -2 0 0
9 6 20 6 11 13 20 16 20 2 0 0 -9 -6 -20z"/>
<path d="M790 2390 c8 -5 26 -9 40 -9 23 0 23 1 5 9 -11 5 -29 9 -40 9 -17 1
-17 -1 -5 -9z"/>
<path d="M1117 2373 c-3 -5 -11 -46 -18 -93 -7 -47 -19 -91 -26 -98 -8 -8 -10
-23 -7 -38 8 -32 -4 -31 -16 1 -7 17 -17 25 -34 25 -44 0 -63 -69 -26 -92 12
-8 20 -24 20 -41 0 -24 -3 -27 -26 -21 -23 6 -25 4 -22 -17 2 -16 11 -25 25
-27 14 -2 23 -11 25 -25 2 -18 9 -22 38 -20 19 1 51 3 70 3 35 0 97 18 114 32
6 4 -5 13 -22 19 -18 6 -32 15 -32 19 0 5 -14 11 -31 15 -17 4 -33 13 -35 20
-3 7 -2 87 3 177 5 90 8 164 7 166 -1 2 -4 0 -7 -5z m-117 -239 c0 -8 -5 -12
-10 -9 -6 4 -8 11 -5 16 9 14 15 11 15 -7z m20 -40 c0 -2 -7 -4 -15 -4 -8 0
-15 4 -15 10 0 5 7 7 15 4 8 -4 15 -8 15 -10z m50 -134 c0 -5 -4 -10 -10 -10
-5 0 -10 5 -10 10 0 6 5 10 10 10 6 0 10 -4 10 -10z"/>
<path d="M1027 2200 c3 -11 9 -17 14 -14 14 8 10 34 -5 34 -9 0 -12 -7 -9 -20z"/>
<path d="M525 1788 c4 -51 9 -104 12 -118 3 -14 7 -38 10 -55 15 -93 13 15 -3
167 l-5 47 128 0 c91 0 123 -3 111 -10 -29 -16 -21 -24 27 -24 49 -1 57 7 24
21 -17 8 6 13 97 23 149 17 157 15 166 -29 5 -29 6 -27 5 15 l-2 50 -45 -5
c-65 -7 -372 -5 -458 3 l-73 7 6 -92z"/>
<path d="M669 1769 c-12 -23 1 -69 20 -69 19 0 31 37 21 64 -12 32 -26 33 -41
5z"/>
<path d="M777 1758 c-7 -25 8 -58 27 -58 16 0 26 32 19 60 -7 27 -39 26 -46
-2z"/>
<path d="M1092 1620 c0 -14 2 -19 5 -12 2 6 2 18 0 25 -3 6 -5 1 -5 -13z"/>
<path d="M620 1587 c0 -40 33 -60 103 -63 l62 -3 -53 8 c-57 10 -105 36 -99
54 2 8 26 11 68 10 58 -2 60 -1 24 7 -22 5 -55 9 -72 9 -28 1 -33 -3 -33 -22z"/>
<path d="M540 1553 c0 -27 61 -81 104 -92 54 -13 166 -15 166 -2 0 5 -26 14
-57 21 -102 19 -137 31 -165 58 -19 17 -28 21 -28 11 0 -12 -2 -12 -10 1 -6 9
-10 10 -10 3z"/>
<path d="M1034 1514 c-26 -15 -72 -28 -123 -36 -55 -7 -81 -15 -81 -25 0 -19
96 -17 151 3 24 9 52 16 62 16 10 -1 17 5 15 11 -1 7 3 22 10 35 7 12 11 22
10 21 -2 -1 -22 -12 -44 -25z"/>
<path d="M1224 1365 c11 -8 24 -15 30 -15 5 0 1 7 -10 15 -10 8 -23 14 -29 14
-5 0 -1 -6 9 -14z"/>
<path d="M441 1356 c-21 -11 -21 -14 -6 -20 18 -6 45 9 45 25 0 12 -11 11 -39
-5z"/>
<path d="M935 1250 c3 -5 11 -10 16 -10 6 0 7 5 4 10 -3 6 -11 10 -16 10 -6 0
-7 -4 -4 -10z"/>
<path d="M921 1167 c2 -2 12 -9 22 -16 14 -11 17 -11 17 1 0 7 -10 14 -21 15
-12 1 -20 1 -18 0z"/>
<path d="M930 1041 c0 -13 29 -35 37 -28 7 8 -15 37 -28 37 -5 0 -9 -4 -9 -9z"/>
<path d="M200 871 c0 -6 4 -13 10 -16 6 -3 7 1 4 9 -7 18 -14 21 -14 7z"/>
<path d="M305 858 c10 -33 19 -40 55 -44 17 -2 35 -6 39 -8 4 -3 13 -1 21 5
13 7 12 9 -2 9 -9 0 -21 6 -25 14 -9 15 -65 46 -83 46 -7 0 -9 -9 -5 -22z"/>
<path d="M1333 848 c-32 -11 -101 -73 -91 -83 3 -3 26 6 51 21 50 28 80 27
145 -3 31 -14 32 -16 15 -28 -16 -12 -20 -11 -36 8 l-18 22 7 -26 c3 -16 1
-30 -6 -34 -9 -6 -9 -9 0 -15 7 -5 -11 -30 -54 -73 -36 -36 -66 -73 -66 -81 0
-28 -20 -27 -45 1 -24 27 -24 28 -25 5 0 -31 46 -49 70 -27 21 19 37 20 21 2
-6 -8 -7 -18 -3 -22 4 -5 2 -5 -5 -1 -13 7 -26 -9 -30 -36 -4 -27 40 -52 67
-38 18 10 24 8 35 -7 12 -16 18 -16 60 -5 34 9 51 9 66 1 29 -15 323 -253 386
-311 28 -26 57 -48 64 -48 8 0 8 4 -1 15 -10 12 -10 19 -2 27 7 7 12 21 11 33
0 19 -1 19 -9 -2 -5 -13 -12 -23 -16 -23 -9 0 -85 56 -237 174 -97 76 -127
104 -124 118 3 11 -5 27 -24 42 -27 23 -28 26 -12 35 10 6 14 11 10 11 -4 0 4
16 18 34 22 29 27 46 27 98 0 35 -4 76 -11 91 -6 16 -11 32 -11 36 0 18 -79
79 -109 85 -68 13 -87 14 -118 4z m117 -173 c11 -13 9 -25 -11 -68 -24 -52
-83 -117 -106 -117 -22 0 -34 36 -18 50 8 7 15 9 15 5 0 -22 46 37 68 88 26
61 32 66 52 42z"/>
<path d="M160 835 c-8 -9 -8 -15 -2 -15 6 0 12 5 14 12 2 6 10 8 16 4 30 -18
-4 -41 -41 -27 -15 6 -26 4 -35 -5 -15 -16 -16 -68 -2 -94 9 -16 8 -19 -7 -13
-26 9 -13 -2 30 -26 45 -25 54 -26 37 -6 -7 8 -19 15 -26 15 -8 0 -11 6 -8 15
4 8 12 15 19 15 21 0 26 16 16 44 -8 20 -7 24 4 19 8 -3 15 -9 15 -15 0 -5 4
-6 10 -3 5 3 7 0 4 -9 -3 -9 3 -20 14 -27 12 -7 18 -19 14 -28 -4 -11 -1 -13
14 -5 27 13 141 9 158 -5 8 -7 17 -8 20 -3 3 6 24 12 45 14 34 3 38 1 28 -12
-7 -9 -3 -8 9 3 12 10 38 21 58 24 20 3 36 10 36 15 0 5 -6 8 -12 5 -7 -2 -23
0 -36 4 -13 5 -41 5 -66 -1 -43 -9 -241 2 -254 15 -3 3 0 16 7 27 12 20 11 25
-18 50 -36 32 -44 34 -61 13z m-25 -75 c3 -5 1 -10 -4 -10 -6 0 -11 5 -11 10
0 6 2 10 4 10 3 0 8 -4 11 -10z"/>
<path d="M980 847 c0 -3 40 -37 89 -76 88 -70 109 -99 88 -120 -8 -8 -7 -16 5
-27 14 -14 18 -14 47 0 17 9 31 18 31 21 0 2 -48 41 -106 87 -150 117 -154
120 -154 115z"/>
<path d="M1540 811 c0 -5 5 -13 10 -16 6 -3 10 -2 10 4 0 5 -4 13 -10 16 -5 3
-10 2 -10 -4z"/>
<path d="M849 784 c-12 -30 -14 -31 -60 -26 -67 6 -110 -12 -107 -47 3 -22 -3
-27 -37 -39 -74 -25 -234 -44 -329 -38 -124 7 -160 11 -173 19 -17 11 -9 -43
8 -54 12 -8 12 -10 -1 -19 -27 -17 -50 -11 -61 18 l-11 27 -10 -25 c-23 -61
21 -133 95 -155 27 -8 53 -12 57 -10 5 3 25 -4 45 -16 30 -18 45 -21 90 -15
46 5 54 4 49 -9 -5 -13 19 -15 189 -15 122 0 198 4 202 10 4 6 25 20 48 31 54
28 52 24 32 55 -17 27 -17 28 5 46 l23 18 -27 40 c-14 22 -26 44 -26 50 0 5
22 10 49 10 28 0 52 4 55 9 8 12 -16 72 -39 95 -11 12 -28 32 -37 46 l-17 25
-12 -31z m-639 -164 c-8 -5 -24 -9 -35 -9 -16 1 -16 2 5 9 35 11 48 11 30 0z
m376 -34 c1 -27 -1 -28 -35 -23 -20 3 -64 9 -99 13 -34 4 -61 9 -58 11 5 6
158 31 176 29 9 -1 15 -12 16 -30z m-333 17 c-7 -2 -19 -2 -25 0 -7 3 -2 5 12
5 14 0 19 -2 13 -5z m85 -10 c-10 -2 -26 -2 -35 0 -10 3 -2 5 17 5 19 0 27 -2
18 -5z m2 -33 c34 -21 -46 -59 -127 -60 -43 0 -42 16 1 24 19 4 45 15 58 26
26 21 45 24 68 10z m125 -30 c10 -16 -12 -37 -44 -42 -27 -4 -28 -3 -19 18 9
20 22 28 50 33 4 0 10 -4 13 -9z m70 -9 c10 -17 -12 -21 -25 -6 -10 12 -10 15
3 15 9 0 18 -4 22 -9z"/>
<path d="M367 779 c12 -12 24 -21 27 -18 2 2 -8 13 -22 23 l-27 19 22 -24z"/>
<path d="M1270 720 c0 -5 5 -10 10 -10 6 0 10 5 10 10 0 6 -4 10 -10 10 -5 0
-10 -4 -10 -10z"/>
<path d="M443 663 c9 -2 23 -2 30 0 6 3 -1 5 -18 5 -16 0 -22 -2 -12 -5z"/>
</g>
</svg>
